<svg xmlns="http://www.w3.org/2000/svg" version="1.1" xmlns:xlink="http://www.w3.org/1999/xlink" width="1000" height="1000"><g clip-path="url(#SvgjsClipPath1281)"><rect width="1000" height="1000" fill="#ffffff"></rect><g transform="matrix(16.666666666666668,0,0,16.666666666666668,-5.684341886080802e-14,-5.684341886080802e-14)"><svg xmlns="http://www.w3.org/2000/svg" version="1.1" xmlns:xlink="http://www.w3.org/1999/xlink" width="60" height="60"><svg xmlns:xlink="http://www.w3.org/1999/xlink" width="60" height="60" viewBox="0 0 120 120" fill="none" xmlns="http://www.w3.org/2000/svg" class="drop-shadow-md"><path d="M20 40H100V90C100 95.5228 95.5228 100 90 100H30C24.4772 100 20 95.5228 20 90V40Z" fill="#0A5F38"></path><path d="M15 30C15 24.4772 19.4772 20 25 20H95C100.523 20 105 24.4772 105 30V40H15V30Z" fill="#7CB995"></path><path d="M15 40H105V42H15V40Z" fill="#D4AF37"></path><path d="M35 55H85M35 70H85M35 85H85" stroke="#FFFFFF" stroke-width="2px" stroke-linecap="round" fill="none"></path></svg></svg></g></g><defs><clipPath id="SvgjsClipPath1281"><rect width="1000" height="1000" x="0" y="0" rx="150" ry="150"></rect></clipPath></defs></svg>