<svg xmlns="http://www.w3.org/2000/svg" width="140" height="50" viewBox="0 0 180 60" preserveAspectRatio="xMidYMid meet">
  <!-- Crate Icon -->
  <g transform="translate(0, 0) scale(0.55)">
    <path d="M20 40H100V90C100 95.5228 95.5228 100 90 100H30C24.4772 100 20 95.5228 20 90V40Z" fill="#0A5F38"/>
    <path d="M15 30C15 24.4772 19.4772 20 25 20H95C100.523 20 105 24.4772 105 30V40H15V30Z" fill="#7CB995"/>
    <path d="M15 40H105V42H15V40Z" fill="#D4AF37"/>
    <path d="M35 55H85M35 70H85M35 85H85" stroke="#FFFFFF" stroke-width="2" stroke-linecap="round"/>
  </g>
  
  <!-- Text: "Crateful" -->
  <g transform="translate(72, 15)">
    <text x="0" y="25" font-family="ui-sans-serif, system-ui, sans-serif" font-size="30" font-weight="700" letter-spacing="-0.75">
      <tspan fill="#0A5F38">Crate</tspan><tspan fill="#7CB995">ful</tspan>
    </text>
    <!-- Golden underline -->
    <rect x="0" y="30" width="108" height="4" fill="#D4AF37"/>
  </g>
</svg>